<svg width="20" height="30" viewBox="0 0 20 30" fill="none" xmlns="http://www.w3.org/2000/svg">
<path d="M10.0002 14.2917C9.06085 14.2917 8.16002 13.9185 7.49583 13.2543C6.83164 12.5902 6.4585 11.6893 6.4585 10.75C6.4585 9.8107 6.83164 8.90987 7.49583 8.24567C8.16002 7.58148 9.06085 7.20834 10.0002 7.20834C10.9395 7.20834 11.8403 7.58148 12.5045 8.24567C13.1687 8.90987 13.5418 9.8107 13.5418 10.75C13.5418 11.2151 13.4502 11.6757 13.2722 12.1053C13.0943 12.535 12.8334 12.9255 12.5045 13.2543C12.1756 13.5832 11.7852 13.8441 11.3555 14.0221C10.9258 14.2001 10.4653 14.2917 10.0002 14.2917ZM10.0002 0.833344C7.3701 0.833344 4.84776 1.87813 2.98802 3.73787C1.12828 5.5976 0.0834961 8.11995 0.0834961 10.75C0.0834961 18.1875 10.0002 29.1667 10.0002 29.1667C10.0002 29.1667 19.9168 18.1875 19.9168 10.75C19.9168 8.11995 18.872 5.5976 17.0123 3.73787C15.1526 1.87813 12.6302 0.833344 10.0002 0.833344Z" fill="#FF9900"/>
</svg>
